<svg width="544px" height="389px" viewBox="0 0 544 389" version="1.1" xmlns="http://www.w3.org/2000/svg" xmlns:xlink="http://www.w3.org/1999/xlink">
    <!-- Generator: Sketch 48.2 (47327) - http://www.bohemiancoding.com/sketch -->
    <title>Group</title>
    <desc>Created with Sketch.</desc>
    <defs></defs>
    <g id="Logo-Copy-2" stroke="none" stroke-width="1" fill="none" fill-rule="evenodd" transform="translate(-228.000000, -109.000000)">
        <g id="Group" transform="translate(228.000000, 109.000000)" fill="#FFFFFF">
            <path d="M8,367 L202,367 C206.418278,367 210,370.581722 210,375 L210,381 C210,385.418278 206.418278,389 202,389 L8,389 C3.581722,389 0,385.418278 0,381 L0,375 C0,370.581722 3.581722,367 8,367 Z" id="Rectangle"></path>
            <path d="M8,327 L202,327 C206.418278,327 210,330.581722 210,335 L210,341 C210,345.418278 206.418278,349 202,349 L8,349 C3.581722,349 0,345.418278 0,341 L0,335 C0,330.581722 3.581722,327 8,327 Z" id="Rectangle"></path>
            <path d="M8,287 L202,287 C206.418278,287 210,290.581722 210,295 L210,301 C210,305.418278 206.418278,309 202,309 L8,309 C3.581722,309 0,305.418278 0,301 L0,295 C0,290.581722 3.581722,287 8,287 Z" id="Rectangle"></path>
            <path d="M17.406826,185.655324 L201.91179,245.604621 C206.113822,246.969944 208.413429,251.483177 207.048106,255.685209 L205.194004,261.391548 C203.828681,265.59358 199.315448,267.893187 195.113416,266.527864 L10.6084521,206.578567 C6.40642005,205.213244 4.10681297,200.700011 5.47213595,196.497979 L7.32623792,190.79164 C8.69156091,186.589608 13.2047939,184.290001 17.406826,185.655324 Z" id="Rectangle"></path>
            <path d="M117.261528,53.304086 L236.699855,206.178172 C239.420018,209.659823 238.802711,214.687387 235.32106,217.40755 L230.592996,221.101519 C227.111345,223.821682 222.083782,223.204375 219.363618,219.722725 L99.9252918,66.8486385 C97.2051283,63.3669879 97.8224355,58.3394242 101.304086,55.6192607 L106.032151,51.9252918 C109.513801,49.2051283 114.541365,49.8224355 117.261528,53.304086 Z" id="Rectangle"></path>
            <path d="M283,8 L283,202 C283,206.418278 279.418278,210 275,210 L269,210 C264.581722,210 261,206.418278 261,202 L261,8 C261,3.581722 264.581722,0 269,0 L275,0 C279.418278,0 283,3.581722 283,8 Z" id="Rectangle"></path>
            <path d="M536,367 C540.418278,367 544,370.581722 544,375 L544,381 C544,385.418278 540.418278,389 536,389 L342,389 C337.581722,389 334,385.418278 334,381 L334,375 C334,370.581722 337.581722,367 342,367 L536,367 Z" id="Rectangle"></path>
            <path d="M536,327 C540.418278,327 544,330.581722 544,335 L544,341 C544,345.418278 540.418278,349 536,349 L342,349 C337.581722,349 334,345.418278 334,341 L334,335 C334,330.581722 337.581722,327 342,327 L536,327 Z" id="Rectangle"></path>
            <path d="M536,287 C540.418278,287 544,290.581722 544,295 L544,301 C544,305.418278 540.418278,309 536,309 L342,309 C337.581722,309 334,305.418278 334,301 L334,295 C334,290.581722 337.581722,287 342,287 L536,287 Z" id="Rectangle"></path>
            <path d="M526.593174,185.655324 C530.795206,184.290001 535.308439,186.589608 536.673762,190.79164 L538.527864,196.497979 C539.893187,200.700011 537.59358,205.213244 533.391548,206.578567 L348.886584,266.527864 C344.684552,267.893187 340.171319,265.59358 338.805996,261.391548 L336.951894,255.685209 C335.586571,251.483177 337.886178,246.969944 342.08821,245.604621 L526.593174,185.655324 Z" id="Rectangle"></path>
            <path d="M426.738472,53.304086 C429.458635,49.8224355 434.486199,49.2051283 437.967849,51.9252918 L442.695914,55.6192607 C446.177565,58.3394242 446.794872,63.3669879 444.074708,66.8486385 L324.636382,219.722725 C321.916218,223.204375 316.888655,223.821682 313.407004,221.101519 L308.67894,217.40755 C305.197289,214.687387 304.579982,209.659823 307.300145,206.178172 L426.738472,53.304086 Z" id="Rectangle"></path>
        </g>
    </g>
</svg>